<?xml version="1.0" encoding="UTF-8"?>
<svg width="3294px" height="477px" viewBox="0 0 3294 477" version="1.1" xmlns="http://www.w3.org/2000/svg" xmlns:xlink="http://www.w3.org/1999/xlink">
    <title>percentage_decrease</title>
    <g id="percentage_decrease" stroke="none" stroke-width="1" fill="none" fill-rule="evenodd">
        <rect fill="#161616" x="0" y="0" width="3294" height="477"></rect>
        <path d="M258.89,264.1365 L258.89,236.812 L276.9305,236.812 C291.9115,236.812 301.934,227.739 301.934,214.1295 C301.934,200.731 291.9115,191.7635 276.9305,191.7635 L244.753,191.7635 L244.753,264.1365 L258.89,264.1365 Z M276.9305,224.152 L258.89,224.152 L258.89,204.4235 L276.9305,204.4235 C283.4715,204.4235 287.797,208.327 287.797,214.1295 C287.797,220.143 283.4715,224.152 276.9305,224.152 Z M336.0105,265.6135 C348.8815,265.6135 359.8535,257.8065 363.335,246.2015 L350.464,246.2015 C348.0375,251.4765 342.235,255.0635 336.0105,255.0635 C327.7815,255.0635 321.4515,249.5775 320.291,241.243 L363.546,241.243 L364.601,240.188 L364.601,237.7615 C364.601,221.0925 353.207,209.9095 336.0105,209.9095 C318.814,209.9095 307.42,221.0925 307.42,237.7615 C307.42,254.4305 318.814,265.6135 336.0105,265.6135 Z M350.886,230.693 L321.135,230.693 C323.5615,224.152 328.942,220.4595 336.0105,220.4595 C343.079,220.4595 348.4595,224.152 350.886,230.693 Z M384.857,264.1365 L384.857,232.9085 C384.857,225.84 390.4485,221.0925 398.8885,221.0925 L403.214,221.0925 L403.214,211.3865 C401.737,210.7535 399.5215,210.3315 397.6225,210.3315 C392.7695,210.3315 387.6,213.2855 384.857,217.611 L384.857,211.3865 L372.197,211.3865 L372.197,264.1365 L384.857,264.1365 Z M437.5015,265.6135 C451.8495,265.6135 462.927,256.435 465.1425,242.72 L453.01,242.72 C451.4275,249.7885 445.203,254.4305 437.5015,254.4305 C427.901,254.4305 421.571,247.784 421.571,237.7615 C421.571,227.739 427.901,221.0925 437.5015,221.0925 C445.0975,221.0925 451.2165,225.5235 452.9045,232.2755 L465.037,232.2755 C462.716,218.877 451.744,209.9095 437.5015,209.9095 C420.305,209.9095 408.911,221.0925 408.911,237.7615 C408.911,254.4305 420.305,265.6135 437.5015,265.6135 Z M499.219,265.6135 C512.09,265.6135 523.062,257.8065 526.5435,246.2015 L513.6725,246.2015 C511.246,251.4765 505.4435,255.0635 499.219,255.0635 C490.99,255.0635 484.66,249.5775 483.4995,241.243 L526.7545,241.243 L527.8095,240.188 L527.8095,237.7615 C527.8095,221.0925 516.4155,209.9095 499.219,209.9095 C482.0225,209.9095 470.6285,221.0925 470.6285,237.7615 C470.6285,254.4305 482.0225,265.6135 499.219,265.6135 Z M514.0945,230.693 L484.3435,230.693 C486.77,224.152 492.1505,220.4595 499.219,220.4595 C506.2875,220.4595 511.668,224.152 514.0945,230.693 Z M548.0655,264.1365 L548.0655,232.803 C548.0655,225.7345 553.235,221.0925 560.9365,221.0925 C568.638,221.0925 573.8075,225.7345 573.8075,232.803 L573.8075,264.1365 L586.4675,264.1365 L586.4675,231.326 C586.4675,218.455 576.867,209.9095 562.4135,209.9095 C557.244,209.9095 551.547,212.0195 548.0655,215.29 L548.0655,211.3865 L535.4055,211.3865 L535.4055,264.1365 L548.0655,264.1365 Z M620.2275,265.6135 C623.709,265.6135 627.296,264.9805 629.195,264.1365 L629.195,255.0635 L620.0165,255.0635 C617.2735,255.0635 615.3745,253.27 615.3745,250.6325 L615.3745,221.9365 L628.6675,221.9365 L628.6675,211.3865 L615.3745,211.3865 L615.3745,191.7635 L602.7145,191.7635 L602.7145,211.3865 L594.2745,211.3865 L594.2745,221.9365 L602.7145,221.9365 L602.7145,250.6325 C602.7145,259.6 609.6775,265.6135 620.2275,265.6135 Z M662.322,265.6135 C668.5465,265.6135 675.404,262.765 679.413,258.4395 L679.413,264.1365 L692.073,264.1365 L692.073,211.3865 L679.413,211.3865 L679.413,217.0835 C675.404,212.758 668.5465,209.9095 662.322,209.9095 C645.864,209.9095 634.892,221.0925 634.892,237.7615 C634.892,254.4305 645.864,265.6135 662.322,265.6135 Z M663.588,254.4305 C653.9875,254.4305 647.552,247.784 647.552,237.7615 C647.552,227.739 653.9875,221.0925 663.588,221.0925 C673.083,221.0925 679.413,227.739 679.413,237.7615 C679.413,247.784 673.083,254.4305 663.588,254.4305 Z M727.31,285.2365 C745.034,285.2365 754.951,275.5305 754.951,258.334 L754.951,211.3865 L742.291,211.3865 L742.291,216.556 C738.3875,212.547 731.952,209.9095 726.1495,209.9095 C710.219,209.9095 699.669,220.776 699.669,237.023 C699.669,253.27 710.219,264.1365 726.1495,264.1365 C731.952,264.1365 738.3875,261.499 742.291,257.49 L742.291,258.334 C742.291,268.3565 736.9105,274.0535 727.31,274.0535 C720.2415,274.0535 714.5445,270.0445 712.962,264.1365 L700.302,264.1365 C702.0955,276.7965 712.8565,285.2365 727.31,285.2365 Z M727.4155,252.9535 C718.3425,252.9535 712.329,246.6235 712.329,237.023 C712.329,227.4225 718.3425,221.0925 727.4155,221.0925 C736.383,221.0925 742.291,227.4225 742.291,237.023 C742.291,246.6235 736.383,252.9535 727.4155,252.9535 Z M791.1375,265.6135 C804.0085,265.6135 814.9805,257.8065 818.462,246.2015 L805.591,246.2015 C803.1645,251.4765 797.362,255.0635 791.1375,255.0635 C782.9085,255.0635 776.5785,249.5775 775.418,241.243 L818.673,241.243 L819.728,240.188 L819.728,237.7615 C819.728,221.0925 808.334,209.9095 791.1375,209.9095 C773.941,209.9095 762.547,221.0925 762.547,237.7615 C762.547,254.4305 773.941,265.6135 791.1375,265.6135 Z M806.013,230.693 L776.262,230.693 C778.6885,224.152 784.069,220.4595 791.1375,220.4595 C798.206,220.4595 803.5865,224.152 806.013,230.693 Z M909.5085,264.1365 C931.558,264.1365 946.328,249.683 946.328,227.95 C946.328,206.217 931.558,191.7635 909.5085,191.7635 L881.34,191.7635 L881.34,264.1365 L909.5085,264.1365 Z M909.5085,251.4765 L895.477,251.4765 L895.477,204.4235 L909.5085,204.4235 C923.118,204.4235 932.191,213.813 932.191,227.95 C932.191,242.087 923.118,251.4765 909.5085,251.4765 Z M980.4045,265.6135 C993.2755,265.6135 1004.2475,257.8065 1007.729,246.2015 L994.858,246.2015 C992.4315,251.4765 986.629,255.0635 980.4045,255.0635 C972.1755,255.0635 965.8455,249.5775 964.685,241.243 L1007.94,241.243 L1008.995,240.188 L1008.995,237.7615 C1008.995,221.0925 997.601,209.9095 980.4045,209.9095 C963.208,209.9095 951.814,221.0925 951.814,237.7615 C951.814,254.4305 963.208,265.6135 980.4045,265.6135 Z M995.28,230.693 L965.529,230.693 C967.9555,224.152 973.336,220.4595 980.4045,220.4595 C987.473,220.4595 992.8535,224.152 995.28,230.693 Z M1043.0715,265.6135 C1057.4195,265.6135 1068.497,256.435 1070.7125,242.72 L1058.58,242.72 C1056.9975,249.7885 1050.773,254.4305 1043.0715,254.4305 C1033.471,254.4305 1027.141,247.784 1027.141,237.7615 C1027.141,227.739 1033.471,221.0925 1043.0715,221.0925 C1050.6675,221.0925 1056.7865,225.5235 1058.4745,232.2755 L1070.607,232.2755 C1068.286,218.877 1057.314,209.9095 1043.0715,209.9095 C1025.875,209.9095 1014.481,221.0925 1014.481,237.7615 C1014.481,254.4305 1025.875,265.6135 1043.0715,265.6135 Z M1090.9685,264.1365 L1090.9685,232.9085 C1090.9685,225.84 1096.56,221.0925 1105,221.0925 L1109.3255,221.0925 L1109.3255,211.3865 C1107.8485,210.7535 1105.633,210.3315 1103.734,210.3315 C1098.881,210.3315 1093.7115,213.2855 1090.9685,217.611 L1090.9685,211.3865 L1078.3085,211.3865 L1078.3085,264.1365 L1090.9685,264.1365 Z M1143.613,265.6135 C1156.484,265.6135 1167.456,257.8065 1170.9375,246.2015 L1158.0665,246.2015 C1155.64,251.4765 1149.8375,255.0635 1143.613,255.0635 C1135.384,255.0635 1129.054,249.5775 1127.8935,241.243 L1171.1485,241.243 L1172.2035,240.188 L1172.2035,237.7615 C1172.2035,221.0925 1160.8095,209.9095 1143.613,209.9095 C1126.4165,209.9095 1115.0225,221.0925 1115.0225,237.7615 C1115.0225,254.4305 1126.4165,265.6135 1143.613,265.6135 Z M1158.4885,230.693 L1128.7375,230.693 C1131.164,224.152 1136.5445,220.4595 1143.613,220.4595 C1150.6815,220.4595 1156.062,224.152 1158.4885,230.693 Z M1205.1195,265.6135 C1211.344,265.6135 1218.2015,262.765 1222.2105,258.4395 L1222.2105,264.1365 L1234.8705,264.1365 L1234.8705,211.3865 L1222.2105,211.3865 L1222.2105,217.0835 C1218.2015,212.758 1211.344,209.9095 1205.1195,209.9095 C1188.6615,209.9095 1177.6895,221.0925 1177.6895,237.7615 C1177.6895,254.4305 1188.6615,265.6135 1205.1195,265.6135 Z M1206.3855,254.4305 C1196.785,254.4305 1190.3495,247.784 1190.3495,237.7615 C1190.3495,227.739 1196.785,221.0925 1206.3855,221.0925 C1215.8805,221.0925 1222.2105,227.739 1222.2105,237.7615 C1222.2105,247.784 1215.8805,254.4305 1206.3855,254.4305 Z M1266.9425,265.6135 C1281.607,265.6135 1291.4185,258.6505 1291.4185,248.206 C1291.4185,238.6055 1285.827,234.5965 1268.2085,230.904 C1260.718,229.216 1258.2915,227.8445 1258.2915,225.629 C1258.2915,222.5695 1261.773,220.4595 1266.9425,220.4595 C1271.5845,220.4595 1275.8045,222.886 1277.387,226.473 L1288.992,223.6245 C1285.9325,215.3955 1277.0705,209.9095 1266.9425,209.9095 C1254.177,209.9095 1245.6315,216.4505 1245.6315,226.262 C1245.6315,235.0185 1250.4845,238.5 1265.782,241.9815 C1275.5935,243.8805 1278.7585,245.674 1278.7585,248.206 C1278.7585,252.3205 1274.011,255.0635 1266.9425,255.0635 C1259.874,255.0635 1254.81,251.4765 1254.388,246.2015 L1242.4665,246.2015 C1242.8885,257.8065 1252.7,265.6135 1266.9425,265.6135 Z M1325.495,265.6135 C1338.366,265.6135 1349.338,257.8065 1352.8195,246.2015 L1339.9485,246.2015 C1337.522,251.4765 1331.7195,255.0635 1325.495,255.0635 C1317.266,255.0635 1310.936,249.5775 1309.7755,241.243 L1353.0305,241.243 L1354.0855,240.188 L1354.0855,237.7615 C1354.0855,221.0925 1342.6915,209.9095 1325.495,209.9095 C1308.2985,209.9095 1296.9045,221.0925 1296.9045,237.7615 C1296.9045,254.4305 1308.2985,265.6135 1325.495,265.6135 Z M1340.3705,230.693 L1310.6195,230.693 C1313.046,224.152 1318.4265,220.4595 1325.495,220.4595 C1332.5635,220.4595 1337.944,224.152 1340.3705,230.693 Z M1442.9165,231.6425 L1442.9165,220.2485 L1388.0565,220.2485 L1388.0565,231.6425 L1442.9165,231.6425 Z M1442.9165,255.2745 L1442.9165,243.8805 L1388.0565,243.8805 L1388.0565,255.2745 L1442.9165,255.2745 Z" id="PercentageDecrease=" fill="#FFFFFF" fill-rule="nonzero"></path>
        <g id="Group-3" transform="translate(2802.588000, 200.836500)" fill="#FFFFFF" fill-rule="nonzero">
            <path d="M112.252,73.85 L112.252,1.477 L100.1195,1.477 C98.0095,8.5455 92.5235,12.027 82.923,12.3435 L82.923,22.2605 C89.7805,22.0495 96.427,20.3615 99.592,18.146 L99.592,73.85 L112.252,73.85 Z M153.608,75.327 C171.8595,75.327 182.093,61.7175 182.093,37.6635 C182.093,13.6095 171.8595,0 153.608,0 C135.462,0 125.2285,13.6095 125.2285,37.6635 C125.2285,61.7175 135.462,75.327 153.608,75.327 Z M153.608,64.144 C144.2185,64.144 137.8885,55.704 137.8885,37.6635 C137.8885,21.733 142.9525,11.183 153.608,11.183 C163.103,11.183 169.433,19.623 169.433,37.6635 C169.433,53.594 164.369,64.144 153.608,64.144 Z M218.174,75.327 C236.4255,75.327 246.659,61.7175 246.659,37.6635 C246.659,13.6095 236.4255,0 218.174,0 C200.028,0 189.7945,13.6095 189.7945,37.6635 C189.7945,61.7175 200.028,75.327 218.174,75.327 Z M218.174,64.144 C208.7845,64.144 202.4545,55.704 202.4545,37.6635 C202.4545,21.733 207.5185,11.183 218.174,11.183 C227.669,11.183 233.999,19.623 233.999,37.6635 C233.999,53.594 228.935,64.144 218.174,64.144 Z" id="*100"></path>
            <polygon id="Path" points="33.127 60.82075 43.3605 53.43575 33.4435 40.98675 48.741 36.76675 44.8375 24.73975 29.962 30.33125 30.7005 14.50625 18.0405 14.50625 18.779 30.33125 3.9035 24.73975 0 36.76675 15.2975 40.98675 5.3805 53.43575 15.614 60.82075 24.3705 47.52775"></polygon>
        </g>
        <g id="Group-2" transform="translate(1520.111000, 102.000000)">
            <path d="M31.51,64.26 C47.98,64.26 58.96,56.52 58.96,45 C58.96,22.41 18.73,27.72 18.73,18.18 C18.73,13.77 23.86,10.8 31.51,10.8 C38.71,10.8 44.47,14.67 45.91,20.52 L56.98,17.73 C54.1,7.11 43.93,0 31.51,0 C16.66,0 6.76,7.29 6.76,18.18 C6.76,40.05 46.99,32.4 46.99,45 C46.99,50.04 40.78,53.46 31.51,53.46 C21.7,53.46 15.04,48.78 14.77,41.76 L3.34,41.76 C3.61,55.26 14.86,64.26 31.51,64.26 Z M85.96,64.26 C88.93,64.26 91.99,63.72 93.61,63 L93.61,55.26 L85.78,55.26 C83.44,55.26 81.82,53.73 81.82,51.48 L81.82,27 L93.16,27 L93.16,18 L81.82,18 L81.82,1.26 L71.02,1.26 L71.02,18 L63.82,18 L63.82,27 L71.02,27 L71.02,51.48 C71.02,59.13 76.96,64.26 85.96,64.26 Z M121.87,64.26 C127.18,64.26 133.03,61.83 136.45,58.14 L136.45,63 L147.25,63 L147.25,18 L136.45,18 L136.45,22.86 C133.03,19.17 127.18,16.74 121.87,16.74 C107.83,16.74 98.47,26.28 98.47,40.5 C98.47,54.72 107.83,64.26 121.87,64.26 Z M122.95,54.72 C114.76,54.72 109.27,49.05 109.27,40.5 C109.27,31.95 114.76,26.28 122.95,26.28 C131.05,26.28 136.45,31.95 136.45,40.5 C136.45,49.05 131.05,54.72 122.95,54.72 Z M201.43,64.26 C204.4,64.26 207.46,63.72 209.08,63 L209.08,55.26 L201.25,55.26 C198.91,55.26 197.29,53.73 197.29,51.48 L197.29,27 L208.63,27 L208.63,18 L197.29,18 L197.29,1.26 L186.49,1.26 L186.49,18 L177.4,18 C172.81,18 168.31,20.16 166.33,23.49 L166.33,18 L155.53,18 L155.53,63 L166.33,63 L166.33,37.08 C166.33,31.05 171.01,27 178.03,27 L186.49,27 L186.49,51.48 C186.49,59.13 192.43,64.26 201.43,64.26 Z M226.54,11.16 L226.54,1.26 L215.74,1.26 L215.74,11.16 L226.54,11.16 Z M226.54,63 L226.54,18 L215.74,18 L215.74,63 L226.54,63 Z M245.62,63 L245.62,36.27 C245.62,30.24 250.03,26.28 256.6,26.28 C263.17,26.28 267.58,30.24 267.58,36.27 L267.58,63 L278.38,63 L278.38,35.01 C278.38,24.03 270.19,16.74 257.86,16.74 C253.45,16.74 248.59,18.54 245.62,21.33 L245.62,18 L234.82,18 L234.82,63 L245.62,63 Z M308.44,81 C323.56,81 332.02,72.72 332.02,58.05 L332.02,18 L321.22,18 L321.22,22.41 C317.89,18.99 312.4,16.74 307.45,16.74 C293.86,16.74 284.86,26.01 284.86,39.87 C284.86,53.73 293.86,63 307.45,63 C312.4,63 317.89,60.75 321.22,57.33 L321.22,58.05 C321.22,66.6 316.63,71.46 308.44,71.46 C302.41,71.46 297.55,68.04 296.2,63 L285.4,63 C286.93,73.8 296.11,81 308.44,81 Z M308.53,53.46 C300.79,53.46 295.66,48.06 295.66,39.87 C295.66,31.68 300.79,26.28 308.53,26.28 C316.18,26.28 321.22,31.68 321.22,39.87 C321.22,48.06 316.18,53.46 308.53,53.46 Z M398.53,63 L423.82,1.26 L410.95,1.26 L392.23,49.14 L373.6,1.26 L360.64,1.26 L386.11,63 L398.53,63 Z M451.54,64.26 C456.85,64.26 462.7,61.83 466.12,58.14 L466.12,63 L476.92,63 L476.92,18 L466.12,18 L466.12,22.86 C462.7,19.17 456.85,16.74 451.54,16.74 C437.5,16.74 428.14,26.28 428.14,40.5 C428.14,54.72 437.5,64.26 451.54,64.26 Z M452.62,54.72 C444.43,54.72 438.94,49.05 438.94,40.5 C438.94,31.95 444.43,26.28 452.62,26.28 C460.72,26.28 466.12,31.95 466.12,40.5 C466.12,49.05 460.72,54.72 452.62,54.72 Z M496,63 L496,1.26 L485.2,1.26 L485.2,63 L496,63 Z M524.8,64.26 C529.21,64.26 534.07,62.46 537.04,59.67 L537.04,63 L547.84,63 L547.84,18 L537.04,18 L537.04,44.73 C537.04,50.76 532.63,54.72 526.06,54.72 C519.49,54.72 515.08,50.76 515.08,44.73 L515.08,18 L504.28,18 L504.28,45.99 C504.28,56.97 512.47,64.26 524.8,64.26 Z M578.71,64.26 C589.69,64.26 599.05,57.6 602.02,47.7 L591.04,47.7 C588.97,52.2 584.02,55.26 578.71,55.26 C571.69,55.26 566.29,50.58 565.3,43.47 L602.2,43.47 L603.1,42.57 L603.1,40.5 C603.1,26.28 593.38,16.74 578.71,16.74 C564.04,16.74 554.32,26.28 554.32,40.5 C554.32,54.72 564.04,64.26 578.71,64.26 Z M591.4,34.47 L566.02,34.47 C568.09,28.89 572.68,25.74 578.71,25.74 C584.74,25.74 589.33,28.89 591.4,34.47 Z M678.88,45.36 L678.88,35.64 L632.08,35.64 L632.08,45.36 L678.88,45.36 Z M722.8,63 L722.8,36.72 L749.35,36.72 L749.35,25.92 L722.8,25.92 L722.8,12.06 L752.59,12.06 L752.59,1.26 L710.74,1.26 L710.74,63 L722.8,63 Z M770.05,11.16 L770.05,1.26 L759.25,1.26 L759.25,11.16 L770.05,11.16 Z M770.05,63 L770.05,18 L759.25,18 L759.25,63 L770.05,63 Z M789.13,63 L789.13,36.27 C789.13,30.24 793.54,26.28 800.11,26.28 C806.68,26.28 811.09,30.24 811.09,36.27 L811.09,63 L821.89,63 L821.89,35.01 C821.89,24.03 813.7,16.74 801.37,16.74 C796.96,16.74 792.1,18.54 789.13,21.33 L789.13,18 L778.33,18 L778.33,63 L789.13,63 Z M851.77,64.26 C857.08,64.26 862.93,61.83 866.35,58.14 L866.35,63 L877.15,63 L877.15,18 L866.35,18 L866.35,22.86 C862.93,19.17 857.08,16.74 851.77,16.74 C837.73,16.74 828.37,26.28 828.37,40.5 C828.37,54.72 837.73,64.26 851.77,64.26 Z M852.85,54.72 C844.66,54.72 839.17,49.05 839.17,40.5 C839.17,31.95 844.66,26.28 852.85,26.28 C860.95,26.28 866.35,31.95 866.35,40.5 C866.35,49.05 860.95,54.72 852.85,54.72 Z M896.23,63 L896.23,1.26 L885.43,1.26 L885.43,63 L896.23,63 Z M962.74,63 L988.03,1.26 L975.16,1.26 L956.44,49.14 L937.81,1.26 L924.85,1.26 L950.32,63 L962.74,63 Z M1015.75,64.26 C1021.06,64.26 1026.91,61.83 1030.33,58.14 L1030.33,63 L1041.13,63 L1041.13,18 L1030.33,18 L1030.33,22.86 C1026.91,19.17 1021.06,16.74 1015.75,16.74 C1001.71,16.74 992.35,26.28 992.35,40.5 C992.35,54.72 1001.71,64.26 1015.75,64.26 Z M1016.83,54.72 C1008.64,54.72 1003.15,49.05 1003.15,40.5 C1003.15,31.95 1008.64,26.28 1016.83,26.28 C1024.93,26.28 1030.33,31.95 1030.33,40.5 C1030.33,49.05 1024.93,54.72 1016.83,54.72 Z M1060.21,63 L1060.21,1.26 L1049.41,1.26 L1049.41,63 L1060.21,63 Z M1089.01,64.26 C1093.42,64.26 1098.28,62.46 1101.25,59.67 L1101.25,63 L1112.05,63 L1112.05,18 L1101.25,18 L1101.25,44.73 C1101.25,50.76 1096.84,54.72 1090.27,54.72 C1083.7,54.72 1079.29,50.76 1079.29,44.73 L1079.29,18 L1068.49,18 L1068.49,45.99 C1068.49,56.97 1076.68,64.26 1089.01,64.26 Z M1142.92,64.26 C1153.9,64.26 1163.26,57.6 1166.23,47.7 L1155.25,47.7 C1153.18,52.2 1148.23,55.26 1142.92,55.26 C1135.9,55.26 1130.5,50.58 1129.51,43.47 L1166.41,43.47 L1167.31,42.57 L1167.31,40.5 C1167.31,26.28 1157.59,16.74 1142.92,16.74 C1128.25,16.74 1118.53,26.28 1118.53,40.5 C1118.53,54.72 1128.25,64.26 1142.92,64.26 Z M1155.61,34.47 L1130.23,34.47 C1132.3,28.89 1136.89,25.74 1142.92,25.74 C1148.95,25.74 1153.54,28.89 1155.61,34.47 Z" id="StartingValue−FinalValue" fill="#FFFFFF" fill-rule="nonzero"></path>
            <path d="M286.44,263.55 L286.44,185.07 L275.64,185.07 L275.64,263.55 L286.44,263.55 Z M343.59,256.26 C360.06,256.26 371.04,248.52 371.04,237 C371.04,214.41 330.81,219.72 330.81,210.18 C330.81,205.77 335.94,202.8 343.59,202.8 C350.79,202.8 356.55,206.67 357.99,212.52 L369.06,209.73 C366.18,199.11 356.01,192 343.59,192 C328.74,192 318.84,199.29 318.84,210.18 C318.84,232.05 359.07,224.4 359.07,237 C359.07,242.04 352.86,245.46 343.59,245.46 C333.78,245.46 327.12,240.78 326.85,233.76 L315.42,233.76 C315.69,247.26 326.94,256.26 343.59,256.26 Z M398.04,256.26 C401.01,256.26 404.07,255.72 405.69,255 L405.69,247.26 L397.86,247.26 C395.52,247.26 393.9,245.73 393.9,243.48 L393.9,219 L405.24,219 L405.24,210 L393.9,210 L393.9,193.26 L383.1,193.26 L383.1,210 L375.9,210 L375.9,219 L383.1,219 L383.1,243.48 C383.1,251.13 389.04,256.26 398.04,256.26 Z M433.95,256.26 C439.26,256.26 445.11,253.83 448.53,250.14 L448.53,255 L459.33,255 L459.33,210 L448.53,210 L448.53,214.86 C445.11,211.17 439.26,208.74 433.95,208.74 C419.91,208.74 410.55,218.28 410.55,232.5 C410.55,246.72 419.91,256.26 433.95,256.26 Z M435.03,246.72 C426.84,246.72 421.35,241.05 421.35,232.5 C421.35,223.95 426.84,218.28 435.03,218.28 C443.13,218.28 448.53,223.95 448.53,232.5 C448.53,241.05 443.13,246.72 435.03,246.72 Z M513.51,256.26 C516.48,256.26 519.54,255.72 521.16,255 L521.16,247.26 L513.33,247.26 C510.99,247.26 509.37,245.73 509.37,243.48 L509.37,219 L520.71,219 L520.71,210 L509.37,210 L509.37,193.26 L498.57,193.26 L498.57,210 L489.48,210 C484.89,210 480.39,212.16 478.41,215.49 L478.41,210 L467.61,210 L467.61,255 L478.41,255 L478.41,229.08 C478.41,223.05 483.09,219 490.11,219 L498.57,219 L498.57,243.48 C498.57,251.13 504.51,256.26 513.51,256.26 Z M538.62,203.16 L538.62,193.26 L527.82,193.26 L527.82,203.16 L538.62,203.16 Z M538.62,255 L538.62,210 L527.82,210 L527.82,255 L538.62,255 Z M557.7,255 L557.7,228.27 C557.7,222.24 562.11,218.28 568.68,218.28 C575.25,218.28 579.66,222.24 579.66,228.27 L579.66,255 L590.46,255 L590.46,227.01 C590.46,216.03 582.27,208.74 569.94,208.74 C565.53,208.74 560.67,210.54 557.7,213.33 L557.7,210 L546.9,210 L546.9,255 L557.7,255 Z M620.52,273 C635.64,273 644.1,264.72 644.1,250.05 L644.1,210 L633.3,210 L633.3,214.41 C629.97,210.99 624.48,208.74 619.53,208.74 C605.94,208.74 596.94,218.01 596.94,231.87 C596.94,245.73 605.94,255 619.53,255 C624.48,255 629.97,252.75 633.3,249.33 L633.3,250.05 C633.3,258.6 628.71,263.46 620.52,263.46 C614.49,263.46 609.63,260.04 608.28,255 L597.48,255 C599.01,265.8 608.19,273 620.52,273 Z M620.61,245.46 C612.87,245.46 607.74,240.06 607.74,231.87 C607.74,223.68 612.87,218.28 620.61,218.28 C628.26,218.28 633.3,223.68 633.3,231.87 C633.3,240.06 628.26,245.46 620.61,245.46 Z M710.61,255 L735.9,193.26 L723.03,193.26 L704.31,241.14 L685.68,193.26 L672.72,193.26 L698.19,255 L710.61,255 Z M763.62,256.26 C768.93,256.26 774.78,253.83 778.2,250.14 L778.2,255 L789,255 L789,210 L778.2,210 L778.2,214.86 C774.78,211.17 768.93,208.74 763.62,208.74 C749.58,208.74 740.22,218.28 740.22,232.5 C740.22,246.72 749.58,256.26 763.62,256.26 Z M764.7,246.72 C756.51,246.72 751.02,241.05 751.02,232.5 C751.02,223.95 756.51,218.28 764.7,218.28 C772.8,218.28 778.2,223.95 778.2,232.5 C778.2,241.05 772.8,246.72 764.7,246.72 Z M808.08,255 L808.08,193.26 L797.28,193.26 L797.28,255 L808.08,255 Z M836.88,256.26 C841.29,256.26 846.15,254.46 849.12,251.67 L849.12,255 L859.92,255 L859.92,210 L849.12,210 L849.12,236.73 C849.12,242.76 844.71,246.72 838.14,246.72 C831.57,246.72 827.16,242.76 827.16,236.73 L827.16,210 L816.36,210 L816.36,237.99 C816.36,248.97 824.55,256.26 836.88,256.26 Z M890.79,256.26 C901.77,256.26 911.13,249.6 914.1,239.7 L903.12,239.7 C901.05,244.2 896.1,247.26 890.79,247.26 C883.77,247.26 878.37,242.58 877.38,235.47 L914.28,235.47 L915.18,234.57 L915.18,232.5 C915.18,218.28 905.46,208.74 890.79,208.74 C876.12,208.74 866.4,218.28 866.4,232.5 C866.4,246.72 876.12,256.26 890.79,256.26 Z M903.48,226.47 L878.1,226.47 C880.17,220.89 884.76,217.74 890.79,217.74 C896.82,217.74 901.41,220.89 903.48,226.47 Z M954.96,263.55 L954.96,185.07 L944.16,185.07 L944.16,263.55 L954.96,263.55 Z" id="|StartingValue|" fill="#FFFFFF" fill-rule="nonzero"></path>
            <line x1="0.5" y1="133.035" x2="1208" y2="133.035" id="Line" stroke="#FFFFFF" stroke-width="10" stroke-linecap="square"></line>
        </g>
    </g>
</svg>